<svg width="17" height="17" viewBox="0 0 17 17" fill="none" xmlns="http://www.w3.org/2000/svg">
<g id="lucide/zap" clip-path="url(#clip0_994_7630)">
<path id="Vector" d="M3.17878 9.50302C3.05077 9.50346 2.92526 9.46757 2.81684 9.39951C2.70841 9.33145 2.62152 9.23403 2.56627 9.11855C2.51101 9.00308 2.48965 8.8743 2.50467 8.74717C2.5197 8.62004 2.57048 8.49978 2.65113 8.40037L9.34824 1.50032C9.39847 1.44234 9.46693 1.40315 9.54237 1.3892C9.61781 1.37525 9.69576 1.38736 9.76341 1.42355C9.83106 1.45973 9.8844 1.51784 9.91467 1.58834C9.94494 1.65883 9.95035 1.73753 9.93 1.8115L8.63117 5.88388C8.59287 5.98638 8.58001 6.09665 8.59369 6.20521C8.60737 6.31378 8.64718 6.4174 8.7097 6.5072C8.77223 6.597 8.85561 6.67029 8.95268 6.72079C9.04976 6.77129 9.15764 6.79748 9.26706 6.79712H14.0024C14.1304 6.79669 14.2559 6.83258 14.3643 6.90064C14.4728 6.9687 14.5596 7.06612 14.6149 7.18159C14.6702 7.29707 14.6915 7.42585 14.6765 7.55298C14.6615 7.68011 14.6107 7.80036 14.53 7.89978L7.83293 14.7998C7.78269 14.8578 7.71424 14.897 7.6388 14.9109C7.56335 14.9249 7.48541 14.9128 7.41776 14.8766C7.35011 14.8404 7.29677 14.7823 7.26649 14.7118C7.23622 14.6413 7.23082 14.5626 7.25116 14.4886L8.54999 10.4163C8.58829 10.3138 8.60116 10.2035 8.58748 10.0949C8.5738 9.98637 8.53399 9.88274 8.47146 9.79294C8.40894 9.70314 8.32556 9.62985 8.22848 9.57936C8.13141 9.52886 8.02353 9.50267 7.91411 9.50302H3.17878Z" stroke="#7F53FF" stroke-width="1.35295" stroke-linecap="round" stroke-linejoin="round"/>
</g>
<defs>
<clipPath id="clip0_994_7630">
<rect width="16.2354" height="16.2354" fill="white" transform="translate(0.472656 0.0323944)"/>
</clipPath>
</defs>
</svg>
